<!DOCTYPE svg PUBLIC "-//W3C//DTD SVG 1.1//EN" "http://www.w3.org/Graphics/SVG/1.1/DTD/svg11.dtd">
<!-- Uploaded to: SVG Repo, www.svgrepo.com, Transformed by: SVG Repo Mixer Tools -->
<svg height="800px" width="800px" version="1.1" id="Capa_1" xmlns="http://www.w3.org/2000/svg" xmlns:xlink="http://www.w3.org/1999/xlink" viewBox="0 0 131.413 131.413" xml:space="preserve" fill="#000000">
<g id="SVGRepo_bgCarrier" stroke-width="0"/>
<g id="SVGRepo_tracerCarrier" stroke-linecap="round" stroke-linejoin="round"/>
<g id="SVGRepo_iconCarrier"> <g> <circle style="fill:#495E57;" cx="65.707" cy="65.707" r="65.706"/> <g> <path style="fill:#DBDBDB;" d="M44.753,49.184c-0.08-0.075-0.119-0.206-0.119-0.388c0-1.505-0.216-24.601-0.217-24.835 c-0.002-0.245-0.175-0.447-0.39-0.447h-1.475c-0.21,0-0.384,0.198-0.388,0.443c-0.019,0.967-0.463,23.658-0.463,24.839 c0,0.361-0.203,0.515-0.534,0.515c-0.312,0-0.642-0.097-0.655-0.515V23.964c0-0.244-0.172-0.45-0.387-0.45h-0.992 c-0.185,0-0.345,0.149-0.382,0.36c-0.189,1.05-4.646,25.72-2.263,29.793c1.546,2.646,3.605,4.354,6.128,5.091l-2.307,51.71 c0,0.019,0,0.039,0.002,0.058c-0.002,0.019-0.002,0.034-0.002,0.051c0,2.567,1.81,4.661,4.038,4.661h0.714V49.289 C44.933,49.285,44.82,49.251,44.753,49.184z"/> <path style="fill:#EDEDED;" d="M51.643,23.874c-0.04-0.211-0.198-0.36-0.382-0.36h-0.993c-0.214,0-0.39,0.206-0.39,0.45v24.832 c0.029,0.332-0.212,0.482-0.524,0.482c-0.332,0-0.664-0.12-0.664-0.482c0-1.181-0.442-23.872-0.461-24.839 c-0.004-0.245-0.179-0.443-0.392-0.443h-1.473c-0.212,0-0.385,0.202-0.39,0.447c0,0.233-0.217,23.33-0.217,24.835 c0,0.182-0.041,0.313-0.117,0.388c-0.071,0.071-0.188,0.112-0.327,0.112c-0.04,0-0.079-0.003-0.117-0.011 c-0.039,0.008-0.079,0.011-0.116,0.011c-0.007,0-0.012-0.007-0.019-0.007v65.948h0.135h0.851c2.226,0,4.035-2.094,4.035-4.661 c0-0.017,0-0.032-0.003-0.051c0.003-0.019,0.004-0.039,0.003-0.058l-2.307-51.71c2.523-0.737,4.585-2.445,6.128-5.091 C56.287,49.594,51.832,24.924,51.643,23.874z"/> <path style="fill:#DBDBDB;" d="M59.292,46.281c0,4.308,0,11.234,0,13.978c0,4.92,5.19,2.665,5.19,9.686l-2.37,45.942h0.009 c-0.002,0.025-0.009,0.05-0.009,0.076c0,1.925,1.361,3.525,3.172,3.901V22.774C63.865,25.698,59.292,35.26,59.292,46.281z"/> <path style="fill:#EDEDED;" d="M71.621,115.887l-1.95-48.443h0.004c0,0-0.161-43.815-0.161-47.587 c-0.028-2.596-2.861,0.1-4.064,2.576c-0.047,0.097-0.109,0.223-0.166,0.341v97.091c0.265,0.057,0.539,0.087,0.82,0.087 c0.109,0,1.407,0,1.523,0c2.201,0,3.988-1.789,3.988-3.988c0-0.029-0.007-0.055-0.007-0.076H71.621z"/> <path style="fill:#DBDBDB;" d="M72.345,40.727c0,7.788,3.362,13.792,7.982,15.826c0.481,0.237,2.66,0.952,2.66,0.952 l-2.686,52.101h0.007c0,0.026-0.007,0.056-0.007,0.085c0,2.329,1.885,4.212,4.216,4.212c0.043,0,0.255,0,0.509,0V24.871 C78.741,25.144,72.345,32.354,72.345,40.727z"/> <path style="fill:#EDEDED;" d="M98.299,40.727c0-8.494-6.596-15.818-12.968-15.878c-0.006,0-0.006,0-0.011,0h-0.007 c-0.096,0-0.19,0.019-0.286,0.022v89.031c0.443,0,1.023,0,1.094,0c2.332,0,4.217-1.888,4.217-4.212 c0-0.034-0.005-0.059-0.009-0.085h0.009l-2.704-52.066c0,0,2.647-0.968,2.674-0.982C94.935,54.521,98.299,48.518,98.299,40.727z"/> </g> </g> </g>
</svg>